#!OML:ASF X:\für Bonn\!DataBase\2005_08_12_Daniel\c3d\Daniel.ASF
:FULLY-SPECIFIED
:DEGREES
16
root -2.03787 16.7525 -5.76204 -1239.92 102.09 207.366
lowerback 31.7562 -1.08679 -1.55329
upperback 10.3795 -1.03093 -1.98431
thorax -5.58267 -0.0672158 -0.998821
lowerneck 3.98999 -0.851172 -4.68868
upperneck 9.09066 -1.61195 9.28854
head 2.37578 -0.674812 3.9188
rclavicle -2.88238e-015 2.77305e-014
rhumerus -378.45 5.81629 270.502
rradius 33.3255
rwrist 11.4793
rhand -18.1823 737.768
rfingers 7.12502
rthumb 8.09444 707.943
lclavicle -2.88238e-015 2.77305e-014
lhumerus -386.242 21.1284 -282.075
lradius 27.9238
lwrist -28.6787
lhand -7.73752 -724.491
lfingers 7.12502
lthumb 18.1614 -335.319
rfemur 11.6375 5.6571 28.8693
rtibia 25.1157
rfoot 338.932 8.39428
rtoes 15.3194
lfemur -30.7386 -20.4185 -14.9018
ltibia 35.099
lfoot -17.3285 1.23983
ltoes -4.02701
17
root -1.91549 16.7352 -5.7499 -1242.02 102.464 205.142
lowerback 31.987 -1.13868 -1.41421
upperback 10.6085 -1.02978 -1.98318
thorax -5.42857 -0.0558557 -1.07828
lowerneck 4.05795 -0.733197 -4.63214
upperneck 8.92864 -1.44466 9.20254
head 2.29277 -0.59807 3.87479
rclavicle 2.08724e-015 -3.95581e-014
rhumerus -377.967 6.37853 270.444
rradius 33.3694
rwrist 11.7103
rhand -18.1019 737.77
rfingers 7.12502
rthumb 8.17197 707.948
lclavicle 2.08724e-015 -3.95581e-014
lhumerus -385.974 20.6692 -282.125
lradius 28.1755
lwrist -28.5873
lhand -7.79149 -724.081
lfingers 7.12502
lthumb 18.1095 -334.904
rfemur 12.3843 5.69454 29.0756
rtibia 24.376
rfoot 338.986 8.82624
rtoes 15.4367
lfemur -31.3088 -21.2629 -14.2307
ltibia 33.8103
lfoot -18.1037 1.28031
ltoes -3.63494
18
root -1.79207 16.7135 -5.73914 -1243.9 102.858 203.132
lowerback 32.2421 -1.17603 -1.29839
upperback 10.8115 -1.01898 -1.96705
thorax -5.31306 -0.04081 -1.131
lowerneck 4.18744 -0.609849 -4.62178
upperneck 8.78383 -1.27284 9.12208
head 2.20539 -0.520978 3.8419
rclavicle -8.34896e-015 -9.34288e-015
rhumerus -377.615 7.04492 270.43
rradius 33.5437
rwrist 11.8465
rhand -18.0495 737.709
rfingers 7.12502
rthumb 8.22253 707.889
lclavicle -8.34896e-015 -9.34288e-015
lhumerus -385.747 20.2463 -282.151
lradius 28.4634
lwrist -28.4143
lhand -7.81172 -723.759
lfingers 7.12502
lthumb 18.09 -334.58
rfemur 13.0985 5.79163 29.2763
rtibia 23.7025
rfoot 339.105 9.25006
rtoes 15.5997
lfemur -31.9347 -22.1972 -13.5205
ltibia 32.6563
lfoot -18.9543 1.22903
ltoes -3.69392
19
root -1.6684 16.6905 -5.72773 -1245.74 103.25 201.138
lowerback 32.4957 -1.21924 -1.15789
upperback 11.0242 -1.0068 -1.95798
thorax -5.18543 -0.0238688 -1.20643
lowerneck 4.36184 -0.49024 -4.57027
upperneck 8.57793 -1.10238 9.02387
head 2.08938 -0.445579 3.79336
rclavicle -6.70898e-015 3.77691e-015
rhumerus -377.264 7.62509 270.413
rradius 33.7453
rwrist 12.0152
rhand -17.9533 737.666
rfingers 7.12502
rthumb 8.31536 707.849
lclavicle -6.70898e-015 3.77691e-015
lhumerus -385.469 19.9328 -282.182
lradius 28.7612
lwrist -28.2889
lhand -7.89978 -723.415
lfingers 7.12502
lthumb 18.0053 -334.228
rfemur 13.7491 5.89486 29.5062
rtibia 23.1185
rfoot 339.287 9.69973
rtoes 16.116
lfemur -32.5742 -23.0167 -12.8016
ltibia 31.675
lfoot -19.7925 1.09049
ltoes -4.38089
20
root -1.54301 16.6659 -5.71679 -1247.42 103.657 199.323
lowerback 32.7693 -1.24934 -1.04046
upperback 11.241 -0.982762 -1.93745
thorax -5.05984 -0.000964109 -1.25997
lowerneck 4.53663 -0.375612 -4.55485
upperneck 8.39119 -0.940981 8.93322
head 1.98174 -0.37504 3.75476
rclavicle -6.28657e-015 -8.64713e-015
rhumerus -376.936 8.18064 270.434
rradius 33.9583
rwrist 12.1714
rhand -17.8343 737.597
rfingers 7.12502
rthumb 8.43028 707.785
lclavicle -6.28657e-015 -8.64713e-015
lhumerus -385.163 19.5447 -282.161
lradius 29.0738
lwrist -27.9698
lhand -7.96383 -723.182
lfingers 7.12502
lthumb 17.9436 -333.989
rfemur 14.3631 6.00562 29.712
rtibia 22.6327
rfoot 339.439 10.1883
rtoes 16.788
lfemur -33.1407 -23.6743 -12.1952
ltibia 30.8933
lfoot -20.5384 0.899486
ltoes -4.91736
21
root -1.41868 16.641 -5.70553 -1248.83 104.054 197.77
lowerback 33.0686 -1.29187 -0.950201
upperback 11.441 -0.984997 -1.93568
thorax -4.96374 0.00929051 -1.30967
lowerneck 4.76545 -0.25199 -4.48935
upperneck 8.18516 -0.764138 8.79965
head 1.8566 -0.297161 3.69058
rclavicle -1.87852e-014 -2.31087e-015
rhumerus -376.63 8.69708 270.439
rradius 34.159
rwrist 12.4054
rhand -17.7373 737.545
rfingers 7.12502
rthumb 8.5239 707.737
lclavicle -1.87852e-014 -2.31087e-015
lhumerus -384.881 19.2669 -282.177
lradius 29.3942
lwrist -27.6812
lhand -8.12116 -723.087
lfingers 7.12502
lthumb 17.7923 -333.881
rfemur 14.8758 6.11138 29.8825
rtibia 22.2637
rfoot 339.522 10.6433
rtoes 17.2257
lfemur -33.6734 -24.0896 -11.7528
ltibia 30.3227
lfoot -21.0636 0.633824
ltoes -5.34741
22
root -1.29242 16.6139 -5.69407 -1250.09 104.501 196.354
lowerback 33.787 -1.29196 -0.919653
upperback 11.2413 -0.957418 -1.96985
thorax -4.88062 0.0421941 -1.2889
lowerneck 4.9619 -0.140958 -4.37875
upperneck 7.9973 -0.60189 8.6406
head 1.74476 -0.224342 3.609
rclavicle 1.47101e-014 -4.39811e-015
rhumerus -376.303 9.10401 270.456
rradius 34.3271
rwrist 12.6429
rhand -17.6282 737.481
rfingers 7.12502
rthumb 8.62919 707.678
lclavicle 1.47101e-014 -4.39811e-015
lhumerus -384.553 18.908 -282.142
lradius 29.7224
lwrist -27.2159
lhand -8.34046 -723.111
lfingers 7.12502
lthumb 17.5812 -333.885
rfemur 15.3136 6.24169 30.0111
rtibia 22.048
rfoot 339.576 11.1192
rtoes 17.6538
lfemur -34.1927 -24.4046 -11.3807
ltibia 29.942
lfoot -21.4198 0.366825
ltoes -5.26387
23
root -1.16683 16.584 -5.68201 -1251.2 104.914 195.099
lowerback 34.1487 -1.30287 -0.885089
upperback 11.4312 -0.934947 -1.96678
thorax -4.80603 0.0644527 -1.31127
lowerneck 5.12561 -0.044797 -4.22669
upperneck 7.83831 -0.457344 8.44902
head 1.65004 -0.158205 3.50869
rclavicle -1.04393e-014 2.50966e-014
rhumerus -375.982 9.46555 270.485
rradius 34.5241
rwrist 12.8759
rhand -17.4491 737.427
rfingers 7.12502
rthumb 8.80193 707.631
lclavicle -1.04393e-014 2.50966e-014
lhumerus -384.209 18.5018 -282.087
lradius 30.0601
lwrist -26.6718
lhand -8.53564 -723.152
lfingers 7.12502
lthumb 17.3934 -333.911
rfemur 15.6661 6.32537 30.1178
rtibia 22.0288
rfoot 339.542 11.6192
rtoes 18.0257
lfemur -34.6692 -24.5409 -11.119
ltibia 29.7079
lfoot -21.3961 -0.0643468
ltoes -5.61626
24
root -1.04002 16.5492 -5.67165 -1252.13 105.371 194.016
lowerback 34.6011 -1.28771 -0.896675
upperback 11.5962 -0.896888 -1.971
thorax -4.78776 0.0938155 -1.32226
lowerneck 5.1762 0.0440438 -4.01853
upperneck 7.72492 -0.319432 8.21483
head 1.59104 -0.0914927 3.38407
rclavicle -1.30204e-014 3.844e-014
rhumerus -375.632 9.78611 270.522
rradius 34.6831
rwrist 13.1373
rhand -17.3283 737.407
rfingers 7.12502
rthumb 8.91851 707.615
lclavicle -1.30204e-014 3.844e-014
lhumerus -383.839 18.115 -282.005
lradius 30.4006
lwrist -26.1264
lhand -8.82827 -723.271
lfingers 7.12502
lthumb 17.1117 -334.005
rfemur 15.9084 6.38097 30.1454
rtibia 22.2316
rfoot 339.458 12.177
rtoes 18.2936
lfemur -35.0827 -24.4694 -10.9878
ltibia 29.6077
lfoot -20.8052 -0.66644
ltoes -7.48504
25
root -0.911912 16.5104 -5.66174 -1252.71 105.827 193.302
lowerback 35.1519 -1.25274 -1.00215
upperback 11.7095 -0.870101 -1.98173
thorax -4.8557 0.115486 -1.28711
lowerneck 5.30061 0.131203 -3.80767
upperneck 7.61645 -0.184056 7.97617
head 1.52187 -0.0268859 3.25783
rclavicle -3.70236e-014 -4.82053e-015
rhumerus -375.36 9.94579 270.552
rradius 34.8736
rwrist 13.491
rhand -17.2128 737.389
rfingers 7.12502
rthumb 9.03002 707.603
lclavicle -3.70236e-014 -4.82053e-015
lhumerus -383.52 17.6684 -281.904
lradius 30.7535
lwrist -25.4893
lhand -9.15243 -723.42
lfingers 7.12502
lthumb 16.7997 -334.127
rfemur 16.0352 6.34965 30.0332
rtibia 22.672
rfoot 339.338 12.8665
rtoes 18.5875
lfemur -35.4779 -24.3384 -10.9972
ltibia 29.6579
lfoot -19.7331 -1.3953
ltoes -7.71686
26
root -0.78429 16.4751 -5.6508 -1252.97 106.303 192.9
lowerback 35.743 -1.18607 -1.19855
upperback 11.8148 -0.836346 -2.00502
thorax -4.94082 0.139542 -1.22033
lowerneck 5.35221 0.210282 -3.57815
upperneck 7.57476 -0.0590363 7.70162
head 1.48861 0.0352126 3.11748
rclavicle 9.54166e-015 9.93923e-016
rhumerus -375.079 10.0132 270.586
rradius 35.0546
rwrist 13.9194
rhand -17.1255 737.437
rfingers 7.12502
rthumb 9.1142 707.654
lclavicle 9.54166e-015 9.93923e-016
lhumerus -383.213 17.1874 -281.787
lradius 31.16
lwrist -24.8418
lhand -9.532 -723.527
lfingers 7.12502
lthumb 16.4343 -334.204
rfemur 16.0299 6.29019 29.8058
rtibia 23.3384
rfoot 339.213 13.5716
rtoes 18.8747
lfemur -35.7688 -23.9422 -11.2511
ltibia 29.8666
lfoot -18.1721 -2.15612
ltoes -7.31171
27
root -0.656547 16.4426 -5.63909 -1253.03 106.791 192.689
lowerback 36.4529 -1.09506 -1.45777
upperback 11.805 -0.802955 -2.03142
thorax -5.05496 0.163094 -1.13742
lowerneck 5.47296 0.29322 -3.34094
upperneck 7.47026 0.0731169 7.42993
head 1.42341 0.0988881 2.97642
rclavicle -2.21645e-014 3.77691e-014
rhumerus -374.799 9.94926 270.6
rradius 35.2129
rwrist 14.3966
rhand -17.0321 737.554
rfingers 7.12502
rthumb 9.20435 707.775
lclavicle -2.21645e-014 3.77691e-014
lhumerus -382.908 16.6518 -281.657
lradius 31.6055
lwrist -24.1472
lhand -9.8858 -723.609
lfingers 7.12502
lthumb 16.0936 -334.257
rfemur 15.9078 6.16371 29.468
rtibia 24.1779
rfoot 339.129 14.3432
rtoes 19.2536
lfemur -36.0032 -23.3168 -11.7006
ltibia 30.2548
lfoot -16.2125 -2.94131
ltoes -6.37053
